<svg width="113" height="24" viewBox="0 0 113 24" fill="none" xmlns="http://www.w3.org/2000/svg">
<g clip-path="url(#clip0_10_160)">
<path d="M44.7258 8.54222C44.1896 7.60889 43.4496 6.88 42.5013 6.35111C41.553 5.82222 40.4629 5.56 39.2265 5.56C37.9902 5.56 36.9798 5.82667 36.0758 6.36444C35.42 6.75111 34.8971 7.27111 34.4982 7.91555V6.30667C34.4982 6.09333 34.3254 5.92444 34.1171 5.92444H31.5425C31.3298 5.92444 31.1614 6.09778 31.1614 6.30667V21.9956C31.1614 22.2089 31.3342 22.3778 31.5425 22.3778H34.2722C34.4849 22.3778 34.6533 22.2044 34.6533 21.9956V12.6756C34.6533 11.8667 34.8084 11.1644 35.1186 10.5778C35.4288 9.99111 35.8631 9.53778 36.4303 9.22222C36.9975 8.90667 37.6401 8.75111 38.3624 8.75111C39.0847 8.75111 39.7273 8.90667 40.2945 9.22222C40.8617 9.53778 41.3004 9.98222 41.6062 10.56C41.9164 11.1378 42.0715 11.8444 42.0715 12.6756V21.9956C42.0715 22.2089 42.2443 22.3778 42.4526 22.3778H45.1513C45.364 22.3778 45.5324 22.2044 45.5324 21.9956V11.7644C45.5324 10.5467 45.2665 9.47111 44.7303 8.54222H44.7258Z" fill="#09090B"/>
<path d="M62.9166 5.92889H60.2179C60.0052 5.92889 59.8368 6.10222 59.8368 6.31111V15.6311C59.8368 16.4222 59.6773 17.1111 59.3582 17.6978C59.0392 18.2844 58.6005 18.7422 58.0466 19.0667C57.4882 19.3911 56.8412 19.5511 56.1012 19.5511C55.3611 19.5511 54.7407 19.3956 54.1868 19.08C53.6285 18.7644 53.1986 18.3244 52.8884 17.7556C52.5782 17.1867 52.4231 16.5289 52.4231 15.7778V6.31111C52.4231 6.09778 52.2503 5.92889 52.042 5.92889H49.3123C49.0996 5.92889 48.9312 6.10222 48.9312 6.31111V16.0889C48.9312 17.4089 49.1927 18.5689 49.72 19.5733C50.2473 20.5778 50.9829 21.36 51.9268 21.9156C52.8707 22.4711 53.9741 22.7511 55.2326 22.7511C56.4911 22.7511 57.5104 22.4756 58.4144 21.9289C59.0791 21.5289 59.602 21 59.9919 20.3511V22C59.9919 22.2133 60.1647 22.3822 60.373 22.3822H62.9166C63.1293 22.3822 63.2977 22.2089 63.2977 22V6.31111C63.2977 6.09778 63.1249 5.92889 62.9166 5.92889Z" fill="#09090B"/>
<path d="M81.4265 5.92889H78.422C78.2625 5.92889 78.1207 6.02667 78.0631 6.17778L73.8134 17.4933L69.5637 6.17778C69.5061 6.03111 69.3643 5.92889 69.2047 5.92889H66.2313C65.961 5.92889 65.7749 6.20444 65.8768 6.45333L72.125 22.1422C72.1826 22.2889 72.3244 22.3822 72.4795 22.3822H75.1472C75.3023 22.3822 75.4441 22.2889 75.5017 22.1422L81.7765 6.45333C81.8785 6.2 81.6924 5.92889 81.422 5.92889H81.4265Z" fill="#09090B"/>
<path d="M87.4797 5.92889H84.75C84.5395 5.92889 84.3689 6.10002 84.3689 6.31111V22C84.3689 22.2111 84.5395 22.3822 84.75 22.3822H87.4797C87.6902 22.3822 87.8608 22.2111 87.8608 22V6.31111C87.8608 6.10002 87.6902 5.92889 87.4797 5.92889Z" fill="#09090B"/>
<path d="M104.873 8.31555C104.306 7.45333 103.512 6.77778 102.493 6.29333C101.474 5.80889 100.304 5.56444 98.9836 5.56444C97.9333 5.56444 96.9407 5.73778 96.0013 6.08C95.0618 6.42667 94.2464 6.90667 93.5463 7.52444C92.948 8.05333 92.4916 8.65333 92.1814 9.32C92.0928 9.51111 92.1725 9.73778 92.3587 9.82667L94.5965 10.9289C94.7782 11.0178 94.9998 10.9467 95.0973 10.7689C95.4252 10.1644 95.8816 9.66222 96.4666 9.25778C97.1578 8.78222 97.9644 8.54222 98.8905 8.54222C99.9009 8.54222 100.707 8.8 101.314 9.31555C101.922 9.83111 102.227 10.4978 102.227 11.3067V11.9333L96.9141 12.7956C95.6379 13 94.5744 13.3422 93.7324 13.8311C92.886 14.3156 92.2656 14.9156 91.8624 15.6267C91.4591 16.3378 91.2597 17.1378 91.2597 18.0311C91.2597 18.9822 91.4945 19.8089 91.9687 20.5111C92.4429 21.2089 93.1076 21.76 93.9628 22.1556C94.8181 22.5511 95.8107 22.7467 96.9451 22.7467C97.8935 22.7467 98.7531 22.6133 99.5242 22.3511C100.295 22.0889 100.987 21.7111 101.594 21.2267C101.882 20.9956 102.143 20.7467 102.382 20.4756V22C102.382 22.2133 102.555 22.3822 102.764 22.3822H105.338C105.546 22.3822 105.719 22.2089 105.719 22V11.3111C105.719 10.1733 105.436 9.17778 104.868 8.31555H104.873ZM102.232 15.5378C102.232 16.3689 102.037 17.1244 101.647 17.8044C101.257 18.4844 100.703 19.0267 99.9939 19.4311C99.2849 19.8356 98.4518 20.04 97.5079 20.04C96.7457 20.04 96.1209 19.84 95.6379 19.4489C95.1549 19.0533 94.9111 18.5422 94.9111 17.9111C94.9111 17.28 95.1283 16.7289 95.5581 16.3156C95.9924 15.9022 96.6704 15.6089 97.5966 15.4489L102.232 14.6533V15.5422V15.5378Z" fill="#09090B"/>
<path d="M86.1991 0C85.171 0 84.3379 0.835555 84.3379 1.86667C84.3379 2.89778 85.171 3.73333 86.1991 3.73333C87.2271 3.73333 88.0602 2.89778 88.0602 1.86667C88.0602 0.835555 87.2271 0 86.1991 0Z" fill="#09090B"/>
<path d="M111.188 18.76C110.159 18.76 109.326 19.5956 109.326 20.6267C109.326 21.6578 110.159 22.4933 111.188 22.4933C112.216 22.4933 113.049 21.6578 113.049 20.6267C113.049 19.5956 112.216 18.76 111.188 18.76Z" fill="#09090B"/>
<path d="M0 4.71111V17.28C0 20.6844 2.49486 23.5022 5.75192 23.9956C5.75192 23.9956 5.75192 23.9956 5.75635 23.9956C3.43431 23.5289 1.6662 21.4889 1.69722 19.0089C1.73267 16.3422 4.26298 14.1556 8.14043 13.9422C8.136 13.9422 8.13157 13.9422 8.12714 13.9422C8.22906 13.9244 8.33098 13.9111 8.43733 13.9111H11.5393L1.6662 4.01778C1.05024 3.40444 0 3.84 0 4.71111Z" fill="#09090B"/>
<path d="M17.3267 3.83111C17.3267 3.83111 17.3267 3.83111 17.3222 3.83111C19.6443 4.29778 21.4124 6.33778 21.3814 8.81778C21.3459 11.4844 18.8156 13.6711 14.9382 13.8844C14.9426 13.8844 14.947 13.8844 14.9515 13.8844C14.8495 13.9022 14.7476 13.9156 14.6413 13.9156H11.5393L21.4124 23.8089C22.0284 24.4222 23.0742 23.9867 23.0742 23.1156V10.5467C23.0742 7.14222 20.5793 4.32444 17.3222 3.83111H17.3267Z" fill="#09090B"/>
<g opacity="0.5">
<path d="M17.3178 3.83112C16.7816 3.75112 16.303 4.16445 16.303 4.70667V12.2444C16.303 13.0622 15.7137 13.7422 14.9382 13.8844C18.8156 13.6711 21.3459 11.4844 21.3814 8.81778C21.4168 6.33778 19.6443 4.29778 17.3178 3.83112Z" fill="#09090B"/>
<path d="M1.69724 19.0089C1.66179 21.4889 3.43434 23.5289 5.76081 23.9956C6.297 24.0756 6.77559 23.6622 6.77559 23.12V15.5822C6.77559 14.7644 7.36496 14.0844 8.14046 13.9422C4.263 14.1556 1.73269 16.3422 1.69724 19.0089Z" fill="#09090B"/>
</g>
</g>
<defs>
<clipPath id="clip0_10_160">
<rect width="113" height="24" fill="white"/>
</clipPath>
</defs>
</svg>
